/vscmnt/brussel_pixiu_data/_data_brussel/112/vsc11236/PredSimResults/SUBJ11opt3D/trackIG/worker_11.mot
version=1
nRows=11
nColumns=50
inDegrees=yes
endheader
                time	         pelvis_tilt	         pelvis_list	     pelvis_rotation	           pelvis_tx	           pelvis_ty	           pelvis_tz	       hip_flexion_r	     hip_adduction_r	      hip_rotation_r	        knee_angle_r	       ankle_angle_r	         mtp_angle_r	       hip_flexion_l	     hip_adduction_l	      hip_rotation_l	        knee_angle_l	       ankle_angle_l	         mtp_angle_l	    lumbar_extension	      lumbar_bending	     lumbar_rotation	 ercspn_r/activation	 intobl_r/activation	 extobl_r/activation	    abd_r/activation	    add_r/activation	hamstrings_r/activation	bifemsh_r/activation	glut_max_r/activation	iliopsoas_r/activation	rect_fem_r/activation	  vasti_r/activation	gastroc_r/activation	 soleus_r/activation	tib_ant_r/activation	 ercspn_l/activation	 intobl_l/activation	 extobl_l/activation	    abd_l/activation	    add_l/activation	hamstrings_l/activation	bifemsh_l/activation	glut_max_l/activation	iliopsoas_l/activation	rect_fem_l/activation	  vasti_l/activation	gastroc_l/activation	 soleus_l/activation	tib_ant_l/activation	
          1.08143876	         -8.41194590	         -4.34516975	          9.78463425	          1.73030201	          0.92310952	         -0.00795883	         37.81825146	         -0.78789917	         -8.45207062	         -8.46216282	          3.83270227	          0.31315654	        -12.19550885	         -5.76815633	          2.53158084	        -13.55019205	          5.88154902	         42.50179973	        -11.83183250	          2.93549319	         -1.39402500	          0.07357893	          0.21949701	          0.01589087	          0.01000016	          0.25382726	          0.07509328	          0.24292905	          0.09127069	          0.15499446	          0.03007028	          0.01000007	          0.01644021	          0.01000003	          0.60336012	          0.03873944	          0.01000019	          0.01000053	          0.02115075	          0.05943889	          0.01491913	          0.19202732	          0.01788024	          0.07376342	          0.03189612	          0.02290053	          0.25198146	          0.25715381	          0.01180242	
          1.09225315	         -8.36459813	         -4.48300588	          9.92268894	          1.75256829	          0.92064686	         -0.00721069	         38.05885649	         -0.61808376	         -8.70445670	        -10.88819395	          2.95452419	          0.30519714	        -13.70282592	         -6.19564754	          2.13871448	        -13.04899109	          4.12561687	         44.13267940	        -11.28022214	          3.25838627	         -1.65287398	          0.06234255	          0.18597671	          0.01346413	          0.01000024	          0.33636947	          0.06362675	          0.20583030	          0.25352971	          0.13132456	          0.02547838	          0.01000012	          0.01392972	          0.01180293	          0.66692517	          0.06593067	          0.01000021	          0.01000116	          0.01792074	          0.17820671	          0.01558446	          0.20227205	          0.01514972	          0.27802132	          0.02702515	          0.01940331	          0.21350026	          0.21788274	          0.01000005	
          1.10306753	         -8.30035695	         -4.57287347	         10.00321233	          1.77493371	          0.91833490	         -0.00641543	         38.21179781	         -0.49564055	         -8.88796514	        -13.51968584	          2.46273565	          0.21936410	        -14.90310752	         -6.53742638	          1.71072874	        -13.15879225	          2.43381016	         45.51226186	        -10.74437775	          3.53313661	         -1.88779455	          0.05959255	          0.15757542	          0.01140800	          0.14642541	          0.41416561	          0.05826237	          0.17439708	          0.29441876	          0.11126940	          0.02158774	          0.01000006	          0.01180252	          0.01000048	          0.77453058	          0.08645798	          0.01000014	          0.01000044	          0.01518401	          0.16757294	          0.01393683	          0.22073465	          0.01283621	          0.51149780	          0.02289805	          0.01644016	          0.18089568	          0.18460890	          0.01000004	
          1.11388192	         -8.22180070	         -4.62195973	         10.02835716	          1.79703057	          0.91641832	         -0.00553902	         38.33576814	         -0.38508168	         -9.03443080	        -16.11901100	          1.99869043	          0.16679847	        -15.59074680	         -6.80139637	          1.28878560	        -14.19418013	          0.90599904	         46.50690694	        -10.26934118	          3.76943691	         -2.09139252	          0.09643136	          0.13351141	          0.01000013	          0.19359679	          0.49395144	          0.04936554	          0.14776416	          0.36201796	          0.09427695	          0.01829130	          0.01000009	          0.01000023	          0.01000003	          0.81672583	          0.10020474	          0.01000013	          0.01000032	          0.01286522	          0.20785574	          0.01180902	          0.19248022	          0.01087606	          0.67972024	          0.01940121	          0.01392952	          0.15327029	          0.15641646	          0.01000007	
          1.12469631	         -8.12689492	         -4.65014232	         10.00228116	          1.81867690	          0.91502916	         -0.00459727	         38.49544673	         -0.27121874	         -9.13277789	        -18.80013404	          1.73614986	          0.08846086	        -15.64480856	         -7.01458391	          0.88737311	        -16.36110588	         -0.31248414	         46.79841440	         -9.87263282	          3.99611207	         -2.25490575	          0.11762812	          0.11312233	          0.01000012	          0.23280812	          0.49559346	          0.04182701	          0.12519847	          0.40981995	          0.07987950	          0.01549838	          0.05836529	          0.01000039	          0.01000018	          0.80549157	          0.17720302	          0.01000012	          0.01000021	          0.01090055	          0.22148819	          0.01000582	          0.16308737	          0.01000011	          0.66963817	          0.01643839	          0.01180230	          0.12986369	          0.13252941	          0.01000005	
          1.13551070	         -8.01605651	         -4.67299218	          9.92661079	          1.83982340	          0.91428904	         -0.00361428	         38.64911813	         -0.13100549	         -9.16758928	        -21.53007357	          1.94349226	          0.01257717	        -15.04724512	         -7.20499621	          0.51101330	        -19.63208658	         -1.41083980	         46.46545757	         -9.55068828	          4.23246784	         -2.37237771	          0.09966498	          0.09584695	          0.01000008	          0.24570506	          0.45015715	          0.03544014	          0.10607890	          0.36403825	          0.06768074	          0.01313208	          0.13155815	          0.01000015	          0.01000003	          0.73073900	          0.20825966	          0.01000007	          0.01000043	          0.01000004	          0.21866678	          0.01000020	          0.13878367	          0.01000003	          0.56737478	          0.01392804	          0.01000002	          0.11003162	          0.11229025	          0.01000007	
          1.14632508	         -7.89429466	         -4.68969394	          9.80005763	          1.86046567	          0.91425365	         -0.00260554	         38.69145153	          0.06234671	         -9.10317078	        -24.09034790	          2.49844740	         -0.02804350	        -13.85381644	         -7.38322405	          0.15371099	        -23.82188501	         -2.63659112	         45.55124515	         -9.29570172	          4.47562525	         -2.44130435	          0.08444479	          0.08120976	          0.01000011	          0.25426604	          0.39841914	          0.04072680	          0.08987918	          0.30844442	          0.05734492	          0.01112738	          0.19916658	          0.01000014	          0.01000004	          0.61914461	          0.19789292	          0.01000010	          0.01000022	          0.01000004	          0.22923150	          0.01000038	          0.12372070	          0.01000003	          0.48072843	          0.01180107	          0.01000001	          0.09322820	          0.09514190	          0.01000007	
          1.15713947	         -7.76947335	         -4.68141551	          9.62439022	          1.88058897	          0.91493618	         -0.00162020	         38.51412231	          0.30093569	         -8.94855796	        -26.28652203	          3.40421611	          0.00513302	        -12.14295673	         -7.53548012	         -0.17878122	        -28.69666503	         -4.18941590	         44.01015508	         -9.10333330	          4.70726837	         -2.46459873	          0.07154889	          0.06880788	          0.01000013	          0.27940750	          0.33757483	          0.03996327	          0.07615340	          0.26134052	          0.04858752	          0.01000145	          0.33341584	          0.01000019	          0.01000005	          0.52459226	          0.17457378	          0.01000009	          0.01000150	          0.01000003	          0.26321262	          0.01000049	          0.11662829	          0.01000002	          0.40731423	          0.01000010	          0.01000000	          0.07899091	          0.08061235	          0.01000003	
          1.16795386	         -7.65120123	         -4.63951598	          9.39641714	          1.90011251	          0.91644909	         -0.00070777	         37.99463199	          0.58178853	         -8.73013574	        -27.87923286	          4.58853173	          0.23473200	         -9.98487165	         -7.64928081	         -0.46026098	        -34.00411435	         -6.24245688	         41.78839744	         -8.97824695	          4.92233374	         -2.43806540	          0.06062237	          0.05829994	          0.01000016	          0.27687545	          0.28602229	          0.03924754	          0.06452374	          0.22143005	          0.04116751	          0.01000119	          0.41939200	          0.01000029	          0.01000006	          0.44447941	          0.20118514	          0.03564505	          0.06734308	          0.01000002	          0.23729567	          0.01000200	          0.09881846	          0.01000004	          0.34511144	          0.01000016	          0.01000001	          0.06692786	          0.06830168	          0.01000080	
          1.17876825	         -7.54632441	         -4.56323101	          9.12453574	          1.91892514	          0.91885789	          0.00013627	         37.12087624	          0.89363851	         -8.45932107	        -28.79606586	          5.85679499	          0.64926044	         -7.46244219	         -7.71415154	         -0.62646280	        -39.51652161	         -8.54658785	         38.35238391	         -8.93217043	          5.11170945	         -2.37367447	          0.05136448	          0.04939673	          0.01000016	          0.23759465	          0.24234256	          0.03325411	          0.05467009	          0.18761448	          0.03488064	          0.01000090	          0.47851424	          0.01000023	          0.01000005	          0.37660097	          0.22937893	          0.09909165	          0.14028360	          0.01000022	          0.20105723	          0.01000022	          0.08372930	          0.01000009	          0.29240793	          0.01000070	          0.01000001	          0.05670702	          0.05787102	          0.19912170	
          1.18958263	         -7.45792285	         -4.47077348	          8.80950418	          1.93694419	          0.92203678	          0.00091058	         35.96893652	          1.23152233	         -8.14966765	        -29.10515338	          6.98604165	          1.12849204	         -4.70651588	         -7.66633931	         -0.57166602	        -45.09019967	        -10.00941847	         33.47797047	         -8.97370604	          5.28558295	         -2.27042670	          0.04352042	          0.04185317	          0.01000008	          0.20442727	          0.20533337	          0.02817591	          0.04632123	          0.15896306	          0.02955386	          0.01000132	          0.45827231	          0.01000023	          0.01000005	          0.31908856	          0.19654272	          0.12461885	          0.17593603	          0.01000002	          0.17035312	          0.01000015	          0.13954522	          0.01000002	          0.24775303	          0.09455804	          0.01000000	          0.05742071	          0.04903328	          0.25126753	
